<?xml version="1.0" standalone="no"?>
<!DOCTYPE svg PUBLIC "-//W3C//DTD SVG 20010904//EN"
 "http://www.w3.org/TR/2001/REC-SVG-20010904/DTD/svg10.dtd">
<svg version="1.0" xmlns="http://www.w3.org/2000/svg"
 width="1000.000000pt" height="600.000000pt" viewBox="0 0 1000.000000 600.000000"
 preserveAspectRatio="xMidYMid meet">

<g transform="translate(0.000000,600.000000) scale(0.100000,-0.100000)"
fill="#000000" stroke="none">
<path d="M530 3405 l-515 -515 515 -515 515 -515 515 515 515 515 -515 515
-515 515 -515 -515z"/>
<path d="M6828 3584 l-98 -100 0 -102 0 -102 -82 0 -83 0 0 -75 0 -75 82 0 81
0 4 -263 3 -263 30 -59 c24 -47 40 -63 82 -87 62 -35 159 -46 246 -29 55 12
57 13 57 45 0 18 -3 53 -6 77 l-6 44 -68 0 c-59 0 -72 3 -94 24 -40 37 -46 79
-46 304 l0 207 100 0 100 0 0 75 0 75 -100 0 -100 0 -2 203 -3 202 -97 -101z"/>
<path d="M4712 3577 l-102 -102 0 -523 0 -522 105 0 105 0 0 625 c0 344 -1
625 -3 625 -1 0 -48 -46 -105 -103z"/>
<path d="M4130 3540 l0 -100 105 0 105 0 0 100 0 100 -105 0 -105 0 0 -100z"/>
<path d="M2978 3277 c-64 -27 -117 -68 -142 -109 -27 -44 -36 -33 -36 42 l0
70 -95 0 -95 0 0 -425 0 -425 105 0 105 0 0 254 c0 275 5 306 56 374 59 76
153 96 215 45 57 -48 59 -63 59 -383 l0 -290 108 0 107 0 -3 212 c-2 118 2
244 8 283 19 125 89 205 177 205 57 0 95 -23 125 -74 22 -40 23 -48 26 -333
l3 -293 105 0 104 0 0 298 c0 326 -6 377 -58 462 -16 26 -48 57 -76 75 -46 28
-56 30 -140 30 -117 0 -175 -25 -247 -103 -48 -53 -52 -55 -65 -37 -8 10 -14
24 -14 30 0 16 -59 70 -100 90 -20 11 -65 20 -105 22 -57 3 -80 -1 -127 -20z"/>
<path d="M5311 3291 c-140 -36 -251 -136 -295 -266 -27 -78 -32 -207 -11 -290
34 -138 100 -220 223 -278 64 -31 73 -32 212 -35 129 -2 152 0 210 20 l65 23
3 83 c2 45 -1 82 -6 82 -5 0 -36 -12 -68 -27 -52 -24 -71 -28 -159 -28 -86 0
-106 3 -145 23 -78 41 -125 100 -132 168 l-3 29 289 3 289 2 -6 103 c-6 131
-36 218 -96 288 -62 72 -129 101 -246 105 -49 2 -105 -1 -124 -5z m207 -169
c40 -29 58 -63 67 -129 l7 -53 -197 0 -197 0 7 38 c11 58 45 110 95 143 41 28
51 30 115 27 54 -2 78 -9 103 -26z"/>
<path d="M6110 3286 c-82 -24 -117 -45 -158 -91 -43 -49 -52 -77 -52 -163 0
-110 57 -173 202 -226 150 -55 188 -83 188 -141 0 -35 -5 -43 -44 -73 -41 -32
-173 -31 -268 2 l-68 23 0 -83 0 -83 38 -12 c20 -7 100 -14 177 -16 126 -4
146 -2 198 17 32 12 75 36 94 53 99 87 111 251 25 340 -40 42 -76 61 -187 102
-154 57 -191 111 -121 181 33 33 37 34 110 34 50 0 96 -7 131 -19 l55 -19 0
78 0 78 -32 12 c-51 18 -235 22 -288 6z"/>
<path d="M7553 3285 c-143 -39 -233 -116 -282 -243 -39 -102 -47 -185 -28
-278 32 -148 100 -240 225 -301 l76 -38 135 0 c132 0 138 1 203 32 154 73 238
210 238 392 0 225 -114 383 -315 436 -72 18 -182 18 -252 0z m188 -146 c53
-16 100 -58 129 -115 22 -44 24 -62 25 -164 0 -110 -2 -117 -31 -170 -18 -32
-49 -68 -73 -85 -37 -26 -51 -30 -111 -30 -91 0 -141 33 -185 120 -28 55 -30
68 -30 165 0 92 3 112 26 161 49 104 144 149 250 118z"/>
<path d="M8645 3286 c-60 -19 -122 -62 -153 -106 -39 -57 -48 -51 -44 30 l4
70 -101 0 -101 0 0 -425 0 -425 103 0 102 0 0 238 c1 272 10 325 71 391 44 50
90 71 151 71 63 0 109 -28 133 -83 18 -38 20 -68 20 -329 l0 -288 106 0 105 0
-3 323 -3 322 -29 63 c-35 76 -90 127 -160 147 -60 18 -146 18 -201 1z"/>
<path d="M9490 3286 c-80 -24 -121 -46 -172 -94 -63 -59 -96 -115 -119 -204
-23 -87 -24 -145 -3 -246 28 -138 97 -227 223 -285 63 -30 73 -31 211 -34 129
-3 152 -1 210 19 l65 23 3 83 c2 45 1 82 -1 82 -2 0 -32 -12 -68 -27 -54 -23
-79 -27 -164 -27 -89 -1 -105 2 -150 26 -27 14 -60 37 -72 50 -27 29 -53 89
-53 123 l0 25 286 0 287 0 -6 103 c-9 192 -73 309 -197 365 -68 30 -209 40
-280 18z m197 -153 c46 -21 80 -76 89 -140 l7 -53 -197 0 c-119 0 -196 4 -196
10 0 22 34 107 52 130 11 14 36 35 56 47 46 28 137 31 189 6z"/>
<path d="M4130 2855 l0 -425 105 0 105 0 0 425 0 425 -105 0 -105 0 0 -425z"/>
</g>
</svg>
