<?xml version="1.0" encoding="UTF-8"?>
<svg version="1.1" xmlns="http://www.w3.org/2000/svg" width="1000" height="600">
<path d="M0 0 C2.55605411 1.24286636 4.18253227 2.78377027 6.1947794 4.79648685 C7.02486515 5.6195583 7.8549509 6.44262974 8.71019077 7.29064274 C9.61218204 8.20027775 10.51417332 9.10991276 11.44349766 10.04711246 C12.40896392 11.0101506 13.37507525 11.97254241 14.34178257 12.93433475 C16.96412432 15.54726863 19.5769574 18.1695242 22.18792915 20.79381347 C24.9191171 23.53631023 27.65800545 26.27109731 30.3958292 29.00696659 C34.99083731 33.60109177 39.57982605 38.20116256 44.16517735 42.80492496 C49.47231211 48.1332462 54.78824263 53.45266373 60.10909677 58.76728243 C65.22251718 63.87501641 70.33026095 68.98838889 75.43521976 74.10457897 C77.61051329 76.28452611 79.7876905 78.46256629 81.96636295 80.63913631 C84.52859181 83.19948713 87.0857956 85.7647525 89.63913441 88.33396816 C91.02893702 89.73006431 92.42367803 91.12123878 93.81852818 92.51229191 C94.63733463 93.33818317 95.45614109 94.16407444 96.29975986 95.01499271 C97.01725029 95.73453601 97.73474072 96.4540793 98.47397327 97.19542694 C99.99330235 98.96923161 99.99330235 98.96923161 99.99330235 100.96923161 C101.31330235 101.62923161 102.63330235 102.28923161 103.99330235 102.96923161 C103.00330235 104.94923161 103.00330235 104.94923161 101.99330235 106.96923161 C101.33330235 106.96923161 100.67330235 106.96923161 99.99330235 106.96923161 C99.74365915 107.54322036 99.49401596 108.11720911 99.23680782 108.70859146 C97.81345952 111.29617822 96.17877504 113.04424608 94.0972147 115.13947392 C93.28407307 115.96259068 92.47093143 116.78570744 91.63314915 117.63376713 C90.29282879 118.9750845 90.29282879 118.9750845 88.92543125 120.34349918 C87.97557987 121.3009743 87.02613209 122.25884995 86.07705784 123.21709538 C83.50139802 125.81467638 80.91921648 128.40567658 78.33511877 130.99486089 C76.72161319 132.61201056 75.10941337 134.2304505 73.49764729 135.84933376 C67.87691215 141.49454781 62.25049341 147.13403224 56.61927891 152.76879215 C51.3655233 158.02618959 46.12506499 163.29659351 40.89044154 168.57303411 C36.39730364 173.10080642 31.89465103 177.61896722 27.38451231 182.12980479 C24.69004389 184.82506787 21.99973992 187.5241986 19.31909657 190.23321819 C16.80031712 192.77806348 14.26996982 195.31079542 11.73008633 197.83457279 C10.35316491 199.20879926 8.98866516 200.59543626 7.62451267 201.98233891 C6.80573139 202.79135654 5.98695011 203.60037418 5.14335728 204.43390751 C4.43433073 205.14494538 3.72530418 205.85598326 2.99479198 206.58856773 C0.99330235 207.96923161 0.99330235 207.96923161 -0.99594498 207.93524933 C-3.60778319 206.68045453 -5.27031723 205.09281071 -7.32879543 203.04827213 C-8.18556881 202.20429371 -9.04234219 201.36031528 -9.92507839 200.49076176 C-10.85669292 199.55778767 -11.78830746 198.62481358 -12.74815273 197.66356754 C-13.744829 196.6758681 -14.74211827 195.6887869 -15.73997402 194.70227909 C-18.44735623 192.02140289 -21.14492776 189.33085891 -23.84004331 186.63765717 C-26.08939138 184.3911572 -28.34281641 182.14876751 -30.59605044 179.90616632 C-35.90973273 174.61691024 -41.21482717 169.31914275 -46.51524258 164.01659489 C-51.98776806 158.54226523 -57.47682086 153.08490553 -62.97386342 147.63520503 C-67.69032298 142.95792716 -72.39518969 138.26920145 -77.09113902 133.57133222 C-79.89716664 130.76453856 -82.70768703 127.96263137 -85.52990055 125.17210484 C-88.18211261 122.54886341 -90.81963403 119.91170354 -93.44643307 117.26302242 C-94.87624946 115.82855652 -96.32094108 114.40896631 -97.76595974 112.98981571 C-98.608634 112.13455799 -99.45130825 111.27930027 -100.31951809 110.39812565 C-101.06005334 109.6592247 -101.80058859 108.92032375 -102.5635643 108.15903187 C-104.00669765 105.96923161 -104.00669765 105.96923161 -103.98262691 103.47007275 C-102.80353714 100.44862811 -101.36831663 98.82488592 -99.07900906 96.52687931 C-97.81087368 95.23965725 -97.81087368 95.23965725 -96.51711941 93.9264307 C-95.58257427 92.99841145 -94.64802914 92.07039219 -93.68516445 91.11425114 C-92.69562074 90.1176484 -91.70692267 89.12020539 -90.71900845 88.12198734 C-88.03616223 85.41664134 -85.34073988 82.72416509 -82.64219165 80.03449202 C-80.3916389 77.78904734 -78.14731227 75.53743182 -75.90296203 73.28579032 C-70.61070779 67.97653683 -65.30824173 62.67763912 -59.9991293 57.38524723 C-54.516945 51.9200053 -49.05137331 46.43854889 -43.59382218 40.94871724 C-38.90984977 36.23808966 -34.2162761 31.5371876 -29.51470977 26.84411991 C-26.70560797 24.03995664 -23.90023324 21.23230618 -21.10384083 18.41546345 C-18.47610015 15.76942824 -15.83659022 13.13573793 -13.18738079 10.51120281 C-12.2155432 9.54439195 -11.24797553 8.57326776 -10.28497791 7.59765148 C-8.97330708 6.27015647 -7.6447576 4.95940137 -6.31533718 3.64968204 C-5.57551444 2.91044561 -4.8356917 2.17120918 -4.07345009 1.40957165 C-2.00669765 -0.03076839 -2.00669765 -0.03076839 0 0 Z " fill="#009BDA" transform="translate(105.00669765472412,207.03076839447021)"/>
<path d="M0 0 C2.7859904 2.72733797 5.25060949 5.50121898 7 9 C7.51046875 8.40832031 8.0209375 7.81664062 8.546875 7.20703125 C16.51129423 -1.4493322 25.3063033 -5.62008226 37.1171875 -6.12890625 C45.12615196 -5.77078182 52.51889755 -2.97510739 58 3 C65.54983051 14.47574238 66.30939493 26.36805186 66.1953125 39.76171875 C66.1924826 41.03352493 66.18965271 42.30533112 66.18673706 43.61567688 C66.17750983 46.95787506 66.15961726 50.29978713 66.1373291 53.64190674 C66.1166802 57.06788697 66.1076951 60.49389704 66.09765625 63.91992188 C66.07571822 70.61336875 66.04125236 77.30664543 66 84 C58.08 84 50.16 84 42 84 C41.95101562 80.35066406 41.90203125 76.70132813 41.8515625 72.94140625 C41.79747285 69.38676028 41.7401967 65.83217884 41.68261719 62.27758789 C41.6444564 59.8170253 41.60958157 57.35640938 41.578125 54.89575195 C41.5321937 51.34827683 41.47424573 47.80116481 41.4140625 44.25390625 C41.40251129 43.1629213 41.39096008 42.07193634 41.37905884 40.94789124 C41.25991837 34.70956223 40.61525394 29.02523381 39 23 C38.5978125 21.2984375 38.5978125 21.2984375 38.1875 19.5625 C37.21746198 16.85978919 37.21746198 16.85978919 34.8125 15.625 C30.06885147 14.57085588 26.40123136 14.47797263 21.8125 16.1875 C15.3568876 20.34778354 13.59953682 25.78857043 12 33 C11.57594831 37.04702469 11.51270743 41.06574717 11.48828125 45.1328125 C11.46135445 46.80958572 11.46135445 46.80958572 11.43388367 48.52023315 C11.38014015 52.05511822 11.34600034 55.58987107 11.3125 59.125 C11.27929522 61.53647659 11.24480269 63.94793581 11.20898438 66.359375 C11.12203471 72.2395986 11.06165655 78.1192405 11 84 C3.08 84 -4.84 84 -13 84 C-13.0093457 82.28490234 -13.01869141 80.56980469 -13.02832031 78.80273438 C-13.06396402 73.11084904 -13.11783522 67.41932753 -13.18390274 61.72771454 C-13.22326903 58.27972114 -13.2555099 54.83197896 -13.27099609 51.38378906 C-13.28915662 47.41178185 -13.33915575 43.44047054 -13.390625 39.46875 C-13.39185364 38.24136108 -13.39308228 37.01397217 -13.39434814 35.74938965 C-13.5138365 28.7165416 -14.17386909 23.96358466 -18 18 C-20.9102599 15.48301847 -22.61633731 15.0488298 -26.4375 14.5625 C-31.39933978 15.17184875 -34.26922338 16.8389198 -37.4140625 20.765625 C-42.84107103 28.82679557 -43.30801605 37.0392145 -43.4140625 46.5 C-43.43342865 47.57628662 -43.4527948 48.65257324 -43.4727478 49.76147461 C-43.53217541 53.17423765 -43.57878126 56.58703509 -43.625 60 C-43.66321367 62.32423286 -43.70226734 64.64845207 -43.7421875 66.97265625 C-43.83941589 72.64836351 -43.91927757 78.32393834 -44 84 C-51.92 84 -59.84 84 -68 84 C-68.02255024 72.67388015 -68.04091463 61.34777509 -68.05181217 50.02163792 C-68.05704119 44.76303336 -68.06413918 39.5044449 -68.07543945 34.24584961 C-68.08626766 29.17546873 -68.09227669 24.10510338 -68.09487724 19.03471184 C-68.09673161 17.09573052 -68.10035245 15.15675009 -68.10573006 13.21777534 C-68.1129396 10.5117824 -68.11399098 7.80585444 -68.11352539 5.09985352 C-68.11712067 4.28993454 -68.12071594 3.48001556 -68.12442017 2.64555359 C-68.11405216 -2.88594784 -68.11405216 -2.88594784 -67 -4 C-65.45044441 -4.09899523 -63.89646327 -4.13079524 -62.34375 -4.1328125 C-60.93416016 -4.13474609 -60.93416016 -4.13474609 -59.49609375 -4.13671875 C-58.50738281 -4.13285156 -57.51867187 -4.12898438 -56.5 -4.125 C-55.01693359 -4.13080078 -55.01693359 -4.13080078 -53.50390625 -4.13671875 C-52.56417969 -4.13542969 -51.62445313 -4.13414062 -50.65625 -4.1328125 C-49.78806641 -4.13168457 -48.91988281 -4.13055664 -48.02539062 -4.12939453 C-46 -4 -46 -4 -45 -3 C-44.76712992 -1.31816052 -44.58735834 0.3712416 -44.4375 2.0625 C-44.31181641 3.44115234 -44.31181641 3.44115234 -44.18359375 4.84765625 C-44.12300781 5.55792969 -44.06242187 6.26820313 -44 7 C-43.62230469 6.55269531 -43.24460937 6.10539062 -42.85546875 5.64453125 C-37.27524061 -0.48457179 -30.90239363 -3.57013519 -23 -5.875 C-14.27294763 -6.23862718 -7.10230028 -5.41981361 0 0 Z " fill="#009BDA" transform="translate(327,274)"/>
<path d="M0 0 C0.60199219 0.35835938 1.20398438 0.71671875 1.82421875 1.0859375 C6.70116781 4.23849893 9.80333752 8.20500628 13 13 C14.0828125 14.546875 14.0828125 14.546875 15.1875 16.125 C22.03127293 28.66714454 21.11292301 43.94420111 17.3203125 57.19140625 C14.40504216 66.25740442 7.7467852 73.62857729 0 79 C-12.27340137 85.28523229 -27.13046635 87.62362588 -40.625 83.75 C-42.09710731 83.20235598 -43.55744384 82.62132569 -45 82 C-45.66773438 81.74476563 -46.33546875 81.48953125 -47.0234375 81.2265625 C-55.97849825 77.36845332 -63.86198333 69.81098606 -68 61 C-68.58587891 59.7625 -68.58587891 59.7625 -69.18359375 58.5 C-73.53916707 47.64874467 -74.0939741 33.19204491 -69.9765625 22.12890625 C-65.05708742 11.40445058 -58.91382943 2.30365049 -47.6875 -2.3828125 C-31.88857851 -8.24046348 -14.86278058 -9.32698195 0 0 Z M-40 17 C-45.75817816 24.41322337 -47.49882859 33.8556987 -46.75390625 43.03125 C-45.59261547 51.17056237 -43.79416697 57.85870148 -37.5625 63.5 C-32.1462443 67.21226514 -26.30126183 66.92547268 -20 66 C-13.36794833 63.99985743 -10.01473377 58.73151395 -6.890625 52.9453125 C-4.18005688 43.98141619 -4.12922449 30.36164532 -8.1875 21.875 C-11.17359598 17.20184414 -14.90798369 14.15396796 -20 12 C-27.70751572 10.95398001 -34.23342 11.456283 -40 17 Z " fill="#009BDA" transform="translate(794,275)"/>
<path d="M0 0 C8.75085003 8.03108314 11.705822 18.96466827 12.9921875 30.46875 C12.9921875 35.08875 12.9921875 39.70875 12.9921875 44.46875 C-6.1478125 44.46875 -25.2878125 44.46875 -45.0078125 44.46875 C-41.02591228 56.16001178 -41.02591228 56.16001178 -31.87890625 62.0625 C-27.57274841 63.85583614 -23.50321582 64.0019533 -18.8828125 63.96875 C-18.05330078 63.96883057 -17.22378906 63.96891113 -16.36914062 63.96899414 C-9.65575778 63.81258219 -4.56458439 62.35979231 1.5234375 59.46484375 C3.9921875 58.46875 3.9921875 58.46875 6.9921875 59.46875 C6.9921875 65.40875 6.9921875 71.34875 6.9921875 77.46875 C-7.11815382 84.29633451 -23.87736284 86.18693851 -39.1328125 81.84375 C-49.74724631 77.94318341 -58.71415109 72.21267504 -64.3203125 62.1015625 C-65.32381929 59.91008075 -66.20659222 57.74151841 -67.0078125 55.46875 C-67.35457031 54.54449219 -67.70132812 53.62023437 -68.05859375 52.66796875 C-71.83863251 39.92783812 -70.26226232 25.9758705 -64.6953125 14.03125 C-58.21481124 2.28173584 -48.72564499 -3.73577187 -36.0078125 -7.53125 C-23.46964184 -10.4814078 -10.25530162 -7.82116388 0 0 Z M-41.3828125 15.65625 C-43.65909563 19.27075567 -43.65909563 19.27075567 -45.0078125 27.46875 C-33.4578125 27.46875 -21.9078125 27.46875 -10.0078125 27.46875 C-10.0078125 20.32434706 -10.45022228 17.59171217 -15.0078125 12.46875 C-24.13283883 6.85334918 -33.72752043 8.60532309 -41.3828125 15.65625 Z " fill="#009BDA" transform="translate(567.0078125,276.53125)"/>
<path d="M0 0 C7.01708337 6.38021937 10.16257451 14.02139178 12.4296875 23.08984375 C12.4296875 30.34984375 12.4296875 37.60984375 12.4296875 45.08984375 C-6.3803125 45.08984375 -25.1903125 45.08984375 -44.5703125 45.08984375 C-40.80452845 55.44574988 -39.2661384 58.65241441 -30.37890625 63.21484375 C-26.42709202 64.44600701 -22.69018922 64.51427515 -18.5703125 64.52734375 C-17.73177734 64.53121094 -16.89324219 64.53507812 -16.02929688 64.5390625 C-9.2773096 64.41507804 -4.18974896 63.03700499 1.9609375 60.18359375 C4.4296875 59.08984375 4.4296875 59.08984375 7.4296875 59.08984375 C7.4296875 65.35984375 7.4296875 71.62984375 7.4296875 78.08984375 C5.5940625 78.89421875 3.7584375 79.69859375 1.8671875 80.52734375 C0.83464844 80.97980469 -0.19789063 81.43226563 -1.26171875 81.8984375 C-14.30536002 86.59538034 -32.03534794 85.65515996 -44.5703125 80.08984375 C-55.75653413 74.82479809 -62.2385785 67.25518786 -66.66015625 55.7890625 C-70.84832993 43.36834141 -70.26366774 26.86254441 -64.5703125 15.08984375 C-57.85635036 3.2707952 -48.50885363 -3.22206742 -35.5703125 -6.91015625 C-23.48394989 -9.87473576 -9.97231144 -7.41103388 0 0 Z M-41.5703125 18.08984375 C-43.38410317 21.3836876 -44.5703125 24.27047149 -44.5703125 28.08984375 C-33.0203125 28.08984375 -21.4703125 28.08984375 -9.5703125 28.08984375 C-9.81547908 18.93374712 -9.81547908 18.93374712 -14.5703125 13.08984375 C-24.62951729 7.36990377 -34.14973776 9.26537649 -41.5703125 18.08984375 Z " fill="#009BDA" transform="translate(985.5703125,275.91015625)"/>
<path d="M0 0 C6.90288863 5.85418055 10.45762919 13.51978295 11.34533691 22.48934937 C11.46030191 26.42799738 11.45142345 30.35422242 11.390625 34.29296875 C11.38314559 35.73455512 11.37746072 37.17615181 11.37347412 38.61775208 C11.35835102 42.37441093 11.31918872 46.13043086 11.2746582 49.88684082 C11.23341386 53.73501955 11.21540149 57.5833036 11.1953125 61.43164062 C11.15267753 68.95474926 11.08244161 76.47720297 11 84 C3.41 84 -4.18 84 -12 84 C-12.01458252 82.3507251 -12.02916504 80.7014502 -12.04418945 79.00219727 C-12.10235414 72.85745034 -12.17958667 66.71306289 -12.26245117 60.56860352 C-12.29722663 57.91394197 -12.32367187 55.25957104 -12.34643555 52.60473633 C-12.38013789 48.77916148 -12.43246396 44.9542147 -12.48828125 41.12890625 C-12.49467117 39.95042618 -12.5010611 38.77194611 -12.50764465 37.55775452 C-12.64412276 26.38281421 -12.64412276 26.38281421 -18 17 C-22.62625117 14.68687442 -27.06252747 14.02455846 -32.05859375 15.68359375 C-36.71609608 17.80544264 -40.58861873 20.36468649 -43 25 C-47.2279632 36.77092295 -46.55596371 49.49256516 -46.6875 61.8125 C-46.72073328 63.96942101 -46.75522831 66.12632298 -46.79101562 68.28320312 C-46.87755986 73.52214844 -46.9382081 78.76047304 -47 84 C-54.92 84 -62.84 84 -71 84 C-71.02255024 72.67388015 -71.04091463 61.34777509 -71.05181217 50.02163792 C-71.05704119 44.76303336 -71.06413918 39.5044449 -71.07543945 34.24584961 C-71.08626766 29.17546873 -71.09227669 24.10510338 -71.09487724 19.03471184 C-71.09673161 17.09573052 -71.10035245 15.15675009 -71.10573006 13.21777534 C-71.1129396 10.5117824 -71.11399098 7.80585444 -71.11352539 5.09985352 C-71.11712067 4.28993454 -71.12071594 3.48001556 -71.12442017 2.64555359 C-71.11405216 -2.88594784 -71.11405216 -2.88594784 -70 -4 C-68.36527118 -4.08700342 -66.72685945 -4.10701063 -65.08984375 -4.09765625 C-64.10048828 -4.09443359 -63.11113281 -4.09121094 -62.09179688 -4.08789062 C-61.05087891 -4.07951172 -60.00996094 -4.07113281 -58.9375 -4.0625 C-57.37032227 -4.05573242 -57.37032227 -4.05573242 -55.77148438 -4.04882812 C-53.18096546 -4.03699927 -50.59047578 -4.01906319 -48 -4 C-47.67 -0.37 -47.34 3.26 -47 7 C-45.700625 5.7625 -44.40125 4.525 -43.0625 3.25 C-31.02494478 -7.44374009 -13.53981615 -9.5589195 0 0 Z " fill="#009BDA" transform="translate(894,274)"/>
<path d="M0 0 C0.99 0 1.98 0 3 0 C2.67 13.53 2.34 27.06 2 41 C8.93 41 15.86 41 23 41 C23 47.27 23 53.54 23 60 C16.07 60 9.14 60 2 60 C2.12071664 64.65914843 2.24372321 69.31812803 2.37231445 73.97705078 C2.41528385 75.55774507 2.45698045 77.13847455 2.49731445 78.71923828 C2.62784397 83.81472392 2.80008139 88.90674634 3 94 C3.02723145 95.04188477 3.05446289 96.08376953 3.08251953 97.15722656 C3.30794704 101.39086508 3.6754722 103.51412505 6.07421875 107.10546875 C9.73819049 109.47800052 12.6101548 109.57184736 16.8125 109.3125 C19.184375 109.209375 21.55625 109.10625 24 109 C24 115.27 24 121.54 24 128 C13.86103922 131.37965359 2.01952623 132.05248425 -7.875 127.4375 C-14.35536779 123.58186218 -17.54918079 119.43973399 -19.57192993 112.20588684 C-20.45686557 107.64572712 -20.240479 103.00626913 -20.1953125 98.37890625 C-20.1924826 97.27900864 -20.18965271 96.17911102 -20.18673706 95.04588318 C-20.1755898 91.55130897 -20.15049498 88.05699606 -20.125 84.5625 C-20.11496316 82.18555059 -20.10583854 79.80859714 -20.09765625 77.43164062 C-20.07566827 71.62099389 -20.04117582 65.81054117 -20 60 C-25.61 60 -31.22 60 -37 60 C-37 53.73 -37 47.46 -37 41 C-31.39 41 -25.78 41 -20 41 C-20.22042969 39.77667969 -20.44085937 38.55335938 -20.66796875 37.29296875 C-21.49845889 30.4675272 -22.10611091 24.16695441 -18.15136719 18.22021484 C-13.51542685 12.86949469 -8.29312244 8.1782792 -2.85766602 3.65380859 C-0.90702937 2.122958 -0.90702937 2.122958 0 0 Z " fill="#009BDA" transform="translate(692,229)"/>
<path d="M0 0 C1.31742188 0.06703125 2.63484375 0.1340625 3.9921875 0.203125 C8.125 0.75 8.125 0.75 17.125 3.75 C17.62 13.155 17.62 13.155 18.125 22.75 C14.65264652 22.0555293 11.78344976 21.32407876 8.5 20.1875 C1.02220608 17.91067916 -6.59750064 17.60297325 -13.875 20.75 C-14.03801505 22.16279706 -14.1538797 23.58108128 -14.25 25 C-14.31960938 25.78890625 -14.38921875 26.5778125 -14.4609375 27.390625 C-14.05465859 30.01128802 -14.05465859 30.01128802 -11.40625 31.8359375 C-7.49434676 34.15376037 -3.26697191 35.60199882 1 37.125 C10.36044986 40.62469971 17.14322911 44.59303969 23.125 52.75 C25.34739501 59.41718503 25.52032716 69.85859892 22.625 76.3125 C17.67193816 84.18526145 9.78176994 88.93560964 0.9609375 91.33984375 C-3.21370601 91.94361451 -7.34939987 91.94139201 -11.5625 91.9375 C-12.90453491 91.9362915 -12.90453491 91.9362915 -14.27368164 91.93505859 C-22.47913639 91.85879833 -29.23990326 90.8040387 -36.875 87.75 C-36.875 81.15 -36.875 74.55 -36.875 67.75 C-34.1215625 68.7090625 -34.1215625 68.7090625 -31.3125 69.6875 C-22.85143542 72.48806289 -13.74939699 74.24984604 -4.9375 72 C-2.45531152 70.49564335 -1.20733627 69.34065386 0.125 66.75 C-0.00717466 64.04041955 -0.35019607 62.42246063 -2.02734375 60.2734375 C-4.57312974 58.17437506 -7.25690438 57.17404539 -10.3125 55.9375 C-33.37870791 46.34641708 -33.37870791 46.34641708 -38.1484375 36.05078125 C-40.20616373 29.5346482 -39.48705138 22.19615468 -37.0234375 15.87890625 C-32.75762467 7.97119199 -26.33735046 4.62685849 -18.12109375 1.66015625 C-12.02141101 -0.05010377 -6.29415205 -0.4033146 0 0 Z " fill="#009BDA" transform="translate(626.875,268.25)"/>
<path d="M0 0 C0 42.57 0 85.14 0 129 C-7.92 129 -15.84 129 -24 129 C-26.19583322 126.80416678 -25.37288275 121.6711933 -25.47851562 118.61279297 C-25.51560638 117.62546677 -25.55269714 116.63814056 -25.59091187 115.62089539 C-25.91838105 106.42911728 -26.11636314 97.23476701 -26.27381134 88.03864861 C-26.38195933 81.86869924 -26.53277096 75.70669605 -26.79003906 69.54101562 C-28.61621499 24.68385113 -28.61621499 24.68385113 -18.3267746 12.74010658 C-6.1915979 0 -6.1915979 0 0 0 Z " fill="#009BDA" transform="translate(484,229)"/>
<path d="M0 0 C7.59 0 15.18 0 23 0 C24.79988399 1.79988399 24.11993004 4.24999876 24.12442017 6.64555359 C24.12082489 7.45547256 24.11722961 8.26539154 24.11352539 9.09985352 C24.11367142 9.94856018 24.11381744 10.79726685 24.1139679 11.67169189 C24.11326848 14.49078891 24.10547478 17.30982071 24.09765625 20.12890625 C24.09579217 22.07803817 24.09436822 24.02717055 24.09336853 25.9763031 C24.08954255 31.11706832 24.07971159 36.25780547 24.06866455 41.39855957 C24.05845215 46.64005148 24.05387128 51.8815479 24.04882812 57.12304688 C24.03808939 67.41537892 24.02049195 77.70768274 24 88 C16.08 88 8.16 88 0 88 C0 58.96 0 29.92 0 0 Z " fill="#009BDA" transform="translate(412,270)"/>
<path d="M0 0 C7.92 0 15.84 0 24 0 C24 7.59 24 15.18 24 23 C16.08 23 8.16 23 0 23 C0 15.41 0 7.82 0 0 Z " fill="#009BDA" transform="translate(412,234)"/>
</svg>
